<?xml version="1.0" encoding="UTF-8"?> <svg xmlns="http://www.w3.org/2000/svg" width="650" height="550" viewBox="0 0 650 550" fill="none"><path d="M293.428 488.226C444.23 500.492 586.361 488.226 589 461.68C589 451.364 463.757 443 309.262 443C154.767 443 25 451.364 25 461.68C25 471.997 164.492 477.739 293.428 488.226Z" fill="#262F63"></path><g opacity="0.3"><circle cx="49.5523" cy="405.345" r="7.60407" transform="rotate(15.8809 49.5523 405.345)" fill="#F3BF75"></circle><path d="M41.1503 397.942C41.9122 401.204 39.1209 404.211 37.5059 404.03C35.8908 403.848 33.79 400.704 34.1878 397.16C34.5855 393.617 37.3312 391.016 38.9462 391.197C40.5612 391.378 40.1806 393.79 41.1503 397.942Z" fill="#F3BF75"></path><path d="M51.1542 391.576C50.9986 394.967 47.1631 396.859 45.5099 396.115C43.8567 395.371 42.563 391.618 44.027 388.366C45.4911 385.115 49.1585 383.596 50.8118 384.34C52.465 385.085 51.3524 387.259 51.1542 391.576Z" fill="#F3BF75"></path><path d="M60.291 403.387C57.9261 405.759 58.7163 409.786 60.1849 410.482C61.6535 411.178 65.095 409.61 66.6222 406.388C68.1493 403.165 67.1838 399.509 65.7152 398.813C64.2467 398.117 63.3008 400.368 60.291 403.387Z" fill="#F3BF75"></path><path d="M54.5018 392.528C52.8488 395.494 55.1139 399.121 56.9114 399.359C58.7089 399.596 61.7843 397.086 62.251 393.551C62.7177 390.016 60.399 386.794 58.6016 386.556C56.8041 386.319 56.6057 388.753 54.5018 392.528Z" fill="#F3BF75"></path><circle cx="43.2458" cy="411.457" r="7.60407" transform="rotate(15.8809 43.2458 411.457)" fill="#F3BF75"></circle><circle cx="52.0224" cy="413.954" r="7.60407" transform="rotate(15.8809 52.0224 413.954)" fill="#F3BF75"></circle></g><g opacity="0.2"><circle cx="545.852" cy="159.648" r="11.3604" transform="rotate(18.6157 545.852 159.648)" fill="#F3BF75"></circle><path d="M533.842 148.001C534.746 152.923 530.366 157.212 527.969 156.827C525.572 156.441 522.661 151.599 523.507 146.339C524.353 141.079 528.636 137.394 531.033 137.779C533.431 138.165 532.691 141.737 533.842 148.001Z" fill="#F3BF75"></path><path d="M549.224 139.214C548.75 144.265 542.892 146.815 540.478 145.586C538.064 144.357 536.401 138.665 538.817 133.917C541.234 129.169 546.815 127.164 549.229 128.393C551.643 129.622 549.828 132.787 549.224 139.214Z" fill="#F3BF75"></path><path d="M562.017 157.492C558.319 160.864 559.211 166.929 561.353 168.072C563.495 169.215 568.743 167.121 571.251 162.421C573.76 157.721 572.58 152.196 570.438 151.052C568.296 149.909 566.724 153.201 562.017 157.492Z" fill="#F3BF75"></path><path d="M554.152 140.874C551.474 145.182 554.595 150.757 557.261 151.239C559.926 151.722 564.695 148.195 565.643 142.953C566.591 137.711 563.361 132.738 560.696 132.255C558.03 131.773 557.56 135.391 554.152 140.874Z" fill="#F3BF75"></path><circle cx="536.005" cy="168.319" r="11.3604" transform="rotate(18.6157 536.005 168.319)" fill="#F3BF75"></circle><circle cx="548.924" cy="172.671" r="11.3604" transform="rotate(18.6157 548.924 172.671)" fill="#F3BF75"></circle></g><g opacity="0.3"><circle cx="155.877" cy="99.8824" r="7.60407" transform="rotate(31.12 155.877 99.8824)" fill="#F3BF75"></circle><path d="M149.717 90.5308C149.595 93.8783 146.111 96.0463 144.6 95.4469C143.09 94.8475 141.889 91.2612 143.205 87.9467C144.52 84.6322 147.852 82.8447 149.363 83.4441C150.874 84.0435 149.872 86.2704 149.717 90.5308Z" fill="#F3BF75"></path><path d="M161.042 87.018C160.001 90.2496 155.803 91.067 154.403 89.9142C153.004 88.7614 152.742 84.8006 155.009 82.0483C157.277 79.2959 161.214 78.7944 162.614 79.9472C164.013 81.1 162.368 82.9052 161.042 87.018Z" fill="#F3BF75"></path><path d="M166.753 100.816C163.848 102.483 163.552 106.576 164.786 107.633C166.02 108.691 169.753 108.083 172.073 105.375C174.394 102.667 174.423 98.8856 173.189 97.8281C171.955 96.7705 170.451 98.6937 166.753 100.816Z" fill="#F3BF75"></path><path d="M164.022 88.8167C161.647 91.2436 162.879 95.3391 164.551 96.0406C166.223 96.742 169.85 95.1288 171.23 91.8406C172.609 88.5524 171.219 84.8343 169.547 84.1328C167.875 83.4314 167.044 85.7278 164.022 88.8167Z" fill="#F3BF75"></path><circle cx="148.186" cy="104.121" r="7.60407" transform="rotate(31.12 148.186 104.121)" fill="#F3BF75"></circle><circle cx="155.998" cy="108.837" r="7.60407" transform="rotate(31.12 155.998 108.837)" fill="#F3BF75"></circle></g><g opacity="0.3"><circle cx="609.799" cy="376.469" r="8.1674" transform="rotate(-10.1069 609.799 376.469)" fill="#F3BF75"></circle><path d="M598.203 373.275C600.474 376.066 599.195 380.283 597.55 380.868C595.905 381.454 592.397 379.406 591.113 375.798C589.83 372.189 591.256 368.386 592.901 367.801C594.546 367.216 595.313 369.723 598.203 373.275Z" fill="#F3BF75"></path><path d="M604.866 362.421C606.312 365.768 603.499 369.4 601.553 369.46C599.606 369.519 596.591 366.505 596.474 362.676C596.357 358.848 599.183 355.656 601.13 355.596C603.076 355.537 603.025 358.16 604.866 362.421Z" fill="#F3BF75"></path><path d="M619.246 369.524C618.079 372.928 620.737 376.443 622.483 376.424C624.228 376.405 626.813 373.271 626.771 369.441C626.729 365.612 624.076 362.536 622.33 362.555C620.585 362.574 620.731 365.193 619.246 369.524Z" fill="#F3BF75"></path><path d="M608.546 361.765C608.346 365.406 612.24 367.842 614.087 367.225C615.934 366.609 617.722 362.738 616.509 359.105C615.296 355.472 611.541 353.453 609.694 354.07C607.846 354.687 608.801 357.13 608.546 361.765Z" fill="#F3BF75"></path><circle cx="606.587" cy="385.337" r="8.1674" transform="rotate(-10.1069 606.587 385.337)" fill="#F3BF75"></circle><circle cx="616.236" cy="383.618" r="8.1674" transform="rotate(-10.1069 616.236 383.618)" fill="#F3BF75"></circle></g><path d="M424 246C450.333 277.333 502 349 507.5 383.5C512.5 346.5 546.6 292 581 268" stroke="#F9D4C8" strokeLinecap="round" stroke-dasharray="7 7"></path><circle r="37" transform="matrix(-1 0 0 1 571 283)" fill="#262F63"></circle><path d="M568.098 247.088C569.428 248.902 571.29 251.586 568.098 259.422C564.108 269.216 568.824 279.632 578.98 281.912C590.588 284.518 598.206 275.745 606.912 279.373" stroke="#F1BC73" strokeWidth="3" strokeLinecap="round"></path><path d="M564.08 318.581C563.264 316.484 564.645 312.818 567.373 305.853C571.228 296.005 566.436 286.017 557.216 281.186C546.678 275.665 542.415 283.108 534.944 277.351" stroke="#F1BC73" strokeWidth="3" strokeLinecap="round"></path><rect x="72.2495" y="245.649" width="93.1284" height="60.1266" fill="url(#paint0_linear)"></rect><path d="M88.0724 184.166C88.0724 164.192 104.265 148 124.239 148H134.637V228.47H88.0724V184.166Z" fill="#CE8112"></path><path d="M32 196H165.816V259.743H86.7017C56.4908 259.743 32 235.252 32 205.042V196Z" fill="url(#paint1_linear)"></path><path d="M229.573 231.635C229.573 222.147 237.265 214.456 246.752 214.456V320.695H229.573V231.635Z" fill="url(#paint2_linear)"></path><path d="M85.8119 372.231H135.089V425.125H109.772C96.5392 425.125 85.8119 414.397 85.8119 401.165V372.231Z" fill="#CE8112"></path><rect x="102.087" y="412.015" width="33.0018" height="41.1392" fill="#CE8112"></rect><path d="M85.8118 453.154C85.8118 443.416 93.7055 435.523 103.443 435.523H106.607C116.345 435.523 124.239 443.416 124.239 453.154H85.8118Z" fill="#CE8112"></path><path d="M154.528 372.231H237.711V425.125H178.488C165.255 425.125 154.528 414.397 154.528 401.165V372.231Z" fill="#CE8112"></path><rect x="204.709" y="412.015" width="33.0018" height="41.1392" fill="#CE8112"></rect><path d="M188.434 453.154C188.434 443.416 196.328 435.523 206.065 435.523H209.23C218.967 435.523 226.861 443.416 226.861 453.154H188.434Z" fill="#CE8112"></path><path d="M72.2495 305.776H222.792C247.76 305.776 268 326.016 268 350.984V401.617H117.457C92.4898 401.617 72.2495 381.376 72.2495 356.409V305.776Z" fill="url(#paint3_linear)"></path><path d="M118.814 184.166C118.814 164.192 135.006 148 154.98 148H165.378V228.47H118.814V184.166Z" fill="url(#paint4_linear)"></path><rect x="62.3038" y="283.624" width="108.047" height="22.1519" fill="#262F63"></rect><rect x="132.376" y="412.015" width="33.0018" height="41.1392" fill="url(#paint5_linear)"></rect><path d="M116.101 372.231H165.378V425.125H140.062C126.829 425.125 116.101 414.397 116.101 401.165V372.231Z" fill="url(#paint6_linear)"></path><path d="M116.101 453.154C116.101 443.416 123.995 435.523 133.732 435.523H136.897C146.634 435.523 154.528 443.416 154.528 453.154H116.101Z" fill="url(#paint7_linear)"></path><rect x="234.998" y="412.015" width="33.0018" height="41.1392" fill="url(#paint8_linear)"></rect><path d="M188.434 372.231H268V425.125H212.394C199.161 425.125 188.434 414.397 188.434 401.165V372.231Z" fill="url(#paint9_linear)"></path><path d="M218.723 453.154C218.723 443.416 226.617 435.523 236.354 435.523H239.519C249.256 435.523 257.15 443.416 257.15 453.154H218.723Z" fill="url(#paint10_linear)"></path><path d="M18 195.373H54.6184V199.215C54.6184 209.327 46.4211 217.524 36.3092 217.524C26.1973 217.524 18 209.327 18 199.215V195.373Z" fill="#262F63"></path><circle cx="98.4702" cy="207.674" r="3.61664" fill="#262F63"></circle><path d="M183 306.18L268 305.18V437L212.902 405.764C194.421 395.287 183 375.683 183 354.438V306.18Z" fill="black" fill-opacity="0.3"></path><path d="M192 127.18C240.968 127.18 287.234 104.732 317.538 66.2672L326.415 55L336.396 66.8594C368.581 105.104 416.015 127.18 466 127.18V344.578C466 366.28 454.086 386.23 434.98 396.521L326.415 455L222.197 396.703C203.551 386.273 192 366.577 192 345.212V127.18Z" fill="#262F63"></path><path d="M197 131.654C244.176 131.654 288.744 110.008 317.912 72.9291L326.509 62L336.17 73.4972C367.15 110.366 412.843 131.654 461 131.654V340.235C461 361.923 449.101 381.863 430.013 392.161L326.509 448L227.163 392.342C208.536 381.906 197 362.221 197 340.87V131.654Z" fill="url(#paint11_linear)"></path><path fill-rule="evenodd" clip-rule="evenodd" d="M327 447.736L430.013 392.161C449.101 381.863 461 361.924 461 340.235V131.654C412.843 131.654 367.15 110.366 336.17 73.4974L327 62.584V447.736Z" fill="url(#paint12_linear)"></path><path opacity="0.2" fill-rule="evenodd" clip-rule="evenodd" d="M312.071 196C307.653 196 304.071 199.582 304.071 204V252.071L256 252.071C251.582 252.071 248 255.653 248 260.071V288.929C248 293.347 251.582 296.929 256 296.929H304.071V345C304.071 349.418 307.653 353 312.071 353H340.929C345.347 353 348.929 349.418 348.929 345V296.929H397C401.418 296.929 405 293.347 405 288.929V260.071C405 255.653 401.418 252.071 397 252.071L348.929 252.071V204C348.929 199.582 345.347 196 340.929 196H312.071Z" fill="black"></path><path fill-rule="evenodd" clip-rule="evenodd" d="M314.071 185C309.653 185 306.071 188.582 306.071 193V241.071L258 241.071C253.582 241.071 250 244.653 250 249.071V277.929C250 282.347 253.582 285.929 258 285.929H306.071V334C306.071 338.418 309.653 342 314.071 342H342.929C347.347 342 350.929 338.418 350.929 334V285.929H399C403.418 285.929 407 282.347 407 277.929V249.071C407 244.653 403.418 241.071 399 241.071L350.929 241.071V193C350.929 188.582 347.347 185 342.929 185H314.071Z" fill="#5982BE"></path><path fill-rule="evenodd" clip-rule="evenodd" d="M317.071 182C312.653 182 309.071 185.582 309.071 190V238.071L261 238.071C256.582 238.071 253 241.653 253 246.071V274.929C253 279.347 256.582 282.929 261 282.929H309.071V331C309.071 335.418 312.653 339 317.071 339H345.929C350.347 339 353.929 335.418 353.929 331V282.929H402C406.418 282.929 410 279.347 410 274.929V246.071C410 241.653 406.418 238.071 402 238.071L353.929 238.071V190C353.929 185.582 350.347 182 345.929 182H317.071Z" fill="url(#paint13_linear)"></path><path opacity="0.3" fill-rule="evenodd" clip-rule="evenodd" d="M465 219V179C465 175.581 465.275 172.159 465.739 168.767L495.327 133.024C496.838 131.199 496.583 128.496 494.758 126.985C492.934 125.475 490.23 125.73 488.72 127.554L469.698 150.533C470.375 148.072 471.072 145.666 471.749 143.328C477.616 123.07 481.98 108 459 108C423.654 108 401 119.654 401 155C401 190.346 429.654 219 465 219Z" fill="black"></path><circle cx="475" cy="144" r="64" fill="white"></circle><path fill-rule="evenodd" clip-rule="evenodd" d="M504.758 115.985C506.583 117.496 506.838 120.199 505.327 122.024L465.213 170.483C464.471 171.378 463.398 171.934 462.239 172.024C461.08 172.113 459.935 171.729 459.065 170.958L442.444 156.23C440.672 154.659 440.508 151.949 442.079 150.176C443.65 148.403 446.36 148.24 448.133 149.811L461.434 161.597L498.72 116.554C500.23 114.73 502.934 114.475 504.758 115.985Z" fill="#71BEB5"></path><path d="M373.101 443.308C353.086 439.972 356.888 419.326 358.09 409.951C362.367 376.594 394.968 371.962 421.468 370.479" stroke="#F0B156" strokeWidth="17.7903" strokeLinecap="round"></path><rect x="366.429" y="404.364" width="125.644" height="63.9339" rx="31.9669" fill="url(#paint14_linear)"></rect><path d="M538.406 362.696C532.402 358.248 517.743 367.885 511.165 373.259L531.179 397.72C536.09 387.899 544.41 367.143 538.406 362.696Z" fill="#F0B156"></path><path d="M486 449.007C486 443.48 490.48 439 496.007 439H536.035C541.562 439 546.042 443.48 546.042 449.007C546.042 454.534 541.562 459.014 536.035 459.014H496.007C490.48 459.014 486 454.534 486 449.007Z" fill="#F0B156"></path><path d="M486 458.007C486 452.48 490.48 448 496.007 448H536.035C541.562 448 546.042 452.48 546.042 458.007C546.042 463.534 541.562 468.014 536.035 468.014H496.007C490.48 468.014 486 463.534 486 458.007Z" fill="url(#paint15_linear)"></path><path d="M437.095 362.14C443.099 357.692 457.757 367.329 464.336 372.703L444.322 397.164C439.411 387.343 431.09 366.587 437.095 362.14Z" fill="#F0B156"></path><ellipse cx="488.181" cy="411.063" rx="47.2555" ry="45.0317" fill="url(#paint16_radial)"></ellipse><path fill-rule="evenodd" clip-rule="evenodd" d="M435.923 419.402H408.125C392.773 419.402 380.328 431.848 380.328 447.2C380.328 458.867 389.786 468.326 401.454 468.326L448.153 468.326H483.178C489.626 468.326 494.853 463.099 494.853 456.651V455.539C494.853 449.091 489.626 443.864 483.178 443.864H460.384C455.472 443.864 451.489 439.882 451.489 434.969C451.489 426.372 444.52 419.402 435.923 419.402Z" fill="url(#paint17_linear)"></path><circle cx="468.167" cy="401.056" r="3.33568" fill="#262F63"></circle><circle cx="505.416" cy="401.056" r="3.33568" fill="#262F63"></circle><path d="M485.68 422.738C484.197 428.02 479.12 436.581 470.669 428.575" stroke="#262F63" strokeWidth="1.11189"></path><path d="M485.68 422.738C487.162 428.02 492.24 436.581 500.69 428.575" stroke="#262F63" strokeWidth="1.11189"></path><path d="M492.073 417.179C488 419.5 487.5 423.294 485.958 423.294C484.415 423.294 482.5 419 479.842 417.179C479.842 413.801 482.58 411.063 485.958 411.063C489.335 411.063 492.073 413.801 492.073 417.179Z" fill="#262F63"></path><defs><linearGradient id="paint0_linear" x1="119" y1="365" x2="118.839" y2="225" gradientUnits="userSpaceOnUse"><stop stop-color="#F3BF75"></stop><stop offset="1" stop-color="#D99953"></stop></linearGradient><linearGradient id="paint1_linear" x1="98.8225" y1="219.427" x2="98.9941" y2="271.5" gradientUnits="userSpaceOnUse"><stop stop-color="#F3BF75"></stop><stop offset="1" stop-color="#D99953"></stop></linearGradient><linearGradient id="paint2_linear" x1="238.163" y1="214.456" x2="238.163" y2="320.695" gradientUnits="userSpaceOnUse"><stop stop-color="#F9D4C8"></stop><stop offset="1" stop-color="#F6BFAE"></stop></linearGradient><linearGradient id="paint3_linear" x1="170" y1="341" x2="170.125" y2="401.617" gradientUnits="userSpaceOnUse"><stop stop-color="#F3BF75"></stop><stop offset="1" stop-color="#D99953"></stop></linearGradient><linearGradient id="paint4_linear" x1="137.5" y1="183.5" x2="144.141" y2="503.956" gradientUnits="userSpaceOnUse"><stop stop-color="#F3BF75"></stop><stop offset="1" stop-color="#D99953"></stop></linearGradient><linearGradient id="paint5_linear" x1="148.856" y1="427.134" x2="148.992" y2="453.153" gradientUnits="userSpaceOnUse"><stop stop-color="#F3BF75"></stop><stop offset="1" stop-color="#D99953"></stop></linearGradient><linearGradient id="paint6_linear" x1="141" y1="313" x2="141.14" y2="425.124" gradientUnits="userSpaceOnUse"><stop stop-color="#F3BF75"></stop><stop offset="1" stop-color="#D99953"></stop></linearGradient><linearGradient id="paint7_linear" x1="135.29" y1="442.003" x2="135.312" y2="453.154" gradientUnits="userSpaceOnUse"><stop stop-color="#F3BF75"></stop><stop offset="1" stop-color="#D99953"></stop></linearGradient><linearGradient id="paint8_linear" x1="251.478" y1="427.134" x2="251.614" y2="453.153" gradientUnits="userSpaceOnUse"><stop stop-color="#F3BF75"></stop><stop offset="1" stop-color="#D99953"></stop></linearGradient><linearGradient id="paint9_linear" x1="228" y1="320.5" x2="228.351" y2="425.124" gradientUnits="userSpaceOnUse"><stop stop-color="#F3BF75"></stop><stop offset="1" stop-color="#D99953"></stop></linearGradient><linearGradient id="paint10_linear" x1="237.912" y1="442.003" x2="237.934" y2="453.154" gradientUnits="userSpaceOnUse"><stop stop-color="#F3BF75"></stop><stop offset="1" stop-color="#D99953"></stop></linearGradient><linearGradient id="paint11_linear" x1="278" y1="173" x2="329" y2="448" gradientUnits="userSpaceOnUse"><stop stop-color="#F6F8FF"></stop><stop offset="1" stop-color="#C4CCF1"></stop></linearGradient><linearGradient id="paint12_linear" x1="316" y1="237.5" x2="461" y2="303" gradientUnits="userSpaceOnUse"><stop stop-color="#C6CEF2"></stop><stop offset="1" stop-color="#F6F8FF"></stop></linearGradient><linearGradient id="paint13_linear" x1="331.391" y1="321.246" x2="331.391" y2="194.741" gradientUnits="userSpaceOnUse"><stop stop-color="#74C0B8"></stop><stop offset="1" stop-color="#4EA399"></stop></linearGradient><linearGradient id="paint14_linear" x1="429" y1="399.5" x2="429" y2="436" gradientUnits="userSpaceOnUse"><stop stop-color="#FBEAD3"></stop><stop offset="1" stop-color="#F3C17A"></stop></linearGradient><linearGradient id="paint15_linear" x1="515.901" y1="446.477" x2="515.901" y2="457.904" gradientUnits="userSpaceOnUse"><stop stop-color="#FBEAD3"></stop><stop offset="1" stop-color="#F3C17A"></stop></linearGradient><radialGradient id="paint16_radial" cx="0" cy="0" r="1" gradientUnits="userSpaceOnUse" gradientTransform="translate(491 366) rotate(89.7191) scale(102.001 107.038)"><stop stop-color="#F3C17A"></stop><stop offset="1" stop-color="#FBEAD3"></stop></radialGradient><linearGradient id="paint17_linear" x1="425" y1="424" x2="438" y2="461" gradientUnits="userSpaceOnUse"><stop stop-color="#FBEAD3"></stop><stop offset="1" stop-color="#F3C17A"></stop></linearGradient></defs></svg> 